<svg width="20" height="20" viewBox="0 0 20 20" fill="none" xmlns="http://www.w3.org/2000/svg">
<g clip-path="url(#clip0_176_1038)">
<path fill-rule="evenodd" clip-rule="evenodd" d="M10 2.50004C8.67396 2.50004 7.40219 3.02682 6.46451 3.96451C5.52682 4.90219 5.00004 6.17396 5.00004 7.50004V11.6667C5.00004 12.2569 4.84352 12.831 4.55347 13.3334H15.4466C15.1566 12.831 15 12.2569 15 11.6667V7.50004C15 6.17396 14.4733 4.90219 13.5356 3.96451C12.5979 3.02682 11.3261 2.50004 10 2.50004ZM18.3334 13.3334C17.8913 13.3334 17.4674 13.1578 17.1549 12.8452C16.8423 12.5327 16.6667 12.1087 16.6667 11.6667V7.50004C16.6667 5.73193 15.9643 4.03624 14.7141 2.786C13.4638 1.53575 11.7681 0.833374 10 0.833374C8.23193 0.833374 6.53624 1.53575 5.286 2.786C4.03575 4.03624 3.33337 5.73193 3.33337 7.50004V11.6667C3.33337 12.1087 3.15778 12.5327 2.84522 12.8452C2.53266 13.1578 2.10873 13.3334 1.66671 13.3334C1.20647 13.3334 0.833374 13.7065 0.833374 14.1667C0.833374 14.6269 1.20647 15 1.66671 15H18.3334C18.7936 15 19.1667 14.6269 19.1667 14.1667C19.1667 13.7065 18.7936 13.3334 18.3334 13.3334ZM8.14023 16.7792C8.53834 16.5483 9.04827 16.6838 9.27921 17.0819C9.35246 17.2082 9.45761 17.313 9.58411 17.3859C9.71062 17.4587 9.85405 17.4971 10 17.4971C10.146 17.4971 10.2895 17.4587 10.416 17.3859C10.5425 17.313 10.6476 17.2082 10.7209 17.0819C10.9518 16.6838 11.4617 16.5483 11.8598 16.7792C12.258 17.0101 12.3935 17.5201 12.1625 17.9182C11.9428 18.297 11.6273 18.6115 11.2478 18.8301C10.8683 19.0487 10.438 19.1638 10 19.1638C9.56207 19.1638 9.13178 19.0487 8.75226 18.8301C8.37274 18.6115 8.0573 18.297 7.83754 17.9182C7.60661 17.5201 7.74213 17.0101 8.14023 16.7792Z" fill="#011D49"/>
</g>
<defs>
<clipPath id="clip0_176_1038">
<rect width="20" height="20" fill="white"/>
</clipPath>
</defs>
</svg>
