<svg width="14" height="15" viewBox="0 0 14 15" fill="none" xmlns="http://www.w3.org/2000/svg">
<path fill-rule="evenodd" clip-rule="evenodd" d="M1.16669 7.49999C1.16669 7.17782 1.42785 6.91666 1.75002 6.91666H12.25C12.5722 6.91666 12.8334 7.17782 12.8334 7.49999C12.8334 7.82216 12.5722 8.08332 12.25 8.08332H1.75002C1.42785 8.08332 1.16669 7.82216 1.16669 7.49999Z" fill="#DDDDDD"/>
<path fill-rule="evenodd" clip-rule="evenodd" d="M1.16669 3.99999C1.16669 3.67782 1.42785 3.41666 1.75002 3.41666H12.25C12.5722 3.41666 12.8334 3.67782 12.8334 3.99999C12.8334 4.32216 12.5722 4.58332 12.25 4.58332H1.75002C1.42785 4.58332 1.16669 4.32216 1.16669 3.99999Z" fill="#DDDDDD"/>
<path fill-rule="evenodd" clip-rule="evenodd" d="M1.16669 11C1.16669 10.6778 1.42785 10.4167 1.75002 10.4167H12.25C12.5722 10.4167 12.8334 10.6778 12.8334 11C12.8334 11.3222 12.5722 11.5833 12.25 11.5833H1.75002C1.42785 11.5833 1.16669 11.3222 1.16669 11Z" fill="#DDDDDD"/>
</svg>
