<svg width="101" height="97" viewBox="0 0 101 97" fill="none" xmlns="http://www.w3.org/2000/svg">
<path d="M69.7221 11.8941H54.6613C54.5957 11.8941 54.53 11.8972 54.4675 11.9004C51.2516 12.0573 49.5483 9.97654 49.5483 9.97654C49.5483 9.97654 46.6981 6.89155 44.8604 5.0462C43.0227 3.20085 40.8725 3 40.8725 3H20.555C16.1515 3 12.5824 6.58399 12.5824 11.0059V60.824C12.5824 65.246 16.1515 68.83 20.555 68.83H69.7221C74.1256 68.83 77.6947 65.246 77.6947 60.824V19.9C77.6947 15.4781 74.1256 11.8941 69.7221 11.8941Z" fill="white"/>
<path d="M24.5554 17.2293H67.0781C70.0128 17.2293 72.3942 19.6207 72.3942 22.5676V68.8268H19.2424V22.5676C19.2424 19.6207 21.6239 17.2293 24.5586 17.2293H24.5554Z" fill="#DDDDDD"/>
<path d="M69.7221 11.8941H54.6613C54.5957 11.8941 54.53 11.8972 54.4675 11.9004C51.2516 12.0573 49.5483 9.97654 49.5483 9.97654C49.5483 9.97654 46.6981 6.89155 44.8604 5.0462C43.0227 3.20085 40.8725 3 40.8725 3H20.555C16.1515 3 12.5824 6.58399 12.5824 11.0059V60.824C12.5824 65.246 16.1515 68.83 20.555 68.83H69.7221C74.1256 68.83 77.6947 65.246 77.6947 60.824V19.9C77.6947 15.4781 74.1256 11.8941 69.7221 11.8941Z" stroke="#999899" stroke-width="2" stroke-miterlimit="10"/>
<path d="M32.625 24.347H78.6917C83.0921 24.347 86.6643 27.9342 86.6643 32.353V60.8209C86.6643 65.2397 83.0921 68.8268 78.6917 68.8268H24.6523V32.353C24.6523 27.9342 28.2246 24.347 32.625 24.347Z" fill="white" stroke="#999899" stroke-width="2" stroke-miterlimit="10"/>
<path d="M54.0456 83.781C62.3635 83.781 69.1064 77.0099 69.1064 68.6574C69.1064 60.3048 62.3635 53.5337 54.0456 53.5337C45.7278 53.5337 38.9849 60.3048 38.9849 68.6574C38.9849 77.0099 45.7278 83.781 54.0456 83.781Z" fill="white" stroke="#999899" stroke-width="2" stroke-miterlimit="10"/>
<path d="M48.0952 64.3296C48.0952 63.5732 48.3359 62.8043 48.8203 62.0292C49.3047 61.254 50.011 60.6075 50.9392 60.0991C51.8674 59.5907 52.9519 59.3333 54.1895 59.3333C55.3396 59.3333 56.3554 59.5467 57.2367 59.9735C58.118 60.4004 58.7993 60.9809 59.2775 61.7122C59.7557 62.4434 59.9963 63.2437 59.9963 64.1036C59.9963 64.7815 59.8588 65.3746 59.5869 65.883C59.3119 66.3915 58.9868 66.834 58.6118 67.2043C58.2368 67.5746 57.5586 68.1991 56.5835 69.0747C56.3147 69.3227 56.096 69.5392 55.9334 69.7275C55.7709 69.9158 55.649 70.0853 55.5709 70.2422C55.4928 70.3991 55.4303 70.5529 55.3865 70.7098C55.3428 70.8667 55.2771 71.1398 55.1896 71.5289C55.0396 72.3574 54.5677 72.7717 53.7739 72.7717C53.3613 72.7717 53.0144 72.6368 52.7331 72.3669C52.4519 72.097 52.3112 71.6921 52.3112 71.1586C52.3112 70.4901 52.4144 69.9095 52.6206 69.42C52.8269 68.9304 53.1019 68.5004 53.4426 68.1301C53.7832 67.7598 54.2427 67.3204 54.824 66.8089C55.3303 66.3632 55.699 66.0243 55.9241 65.7983C56.1491 65.5723 56.3397 65.3181 56.496 65.0388C56.6523 64.7595 56.7273 64.4582 56.7273 64.1318C56.7273 63.4948 56.4897 62.955 56.0178 62.5187C55.5459 62.0794 54.9365 61.8628 54.1895 61.8628C53.3176 61.8628 52.6738 62.0825 52.2612 62.525C51.8487 62.9675 51.4987 63.6203 51.2143 64.4802C50.9455 65.3809 50.4329 65.8297 49.6797 65.8297C49.2359 65.8297 48.8609 65.6728 48.5546 65.3589C48.2484 65.0451 48.0952 64.703 48.0952 64.3358V64.3296ZM53.9051 77.429C53.4207 77.429 52.9988 77.2721 52.6363 76.9583C52.2737 76.6444 52.0956 76.2019 52.0956 75.637C52.0956 75.1349 52.2706 74.7112 52.6206 74.3691C52.9707 74.0271 53.3988 73.8544 53.9051 73.8544C54.4114 73.8544 54.8271 74.0271 55.1677 74.3691C55.5084 74.7112 55.6803 75.1349 55.6803 75.637C55.6803 76.1957 55.5022 76.6319 55.1459 76.952C54.7896 77.269 54.377 77.429 53.9083 77.429H53.9051Z" fill="white" stroke="#999899" stroke-width="1.2" stroke-miterlimit="10"/>
<path d="M50.5 97C78.3904 97 101 95.2091 101 93C101 90.7909 78.3904 89 50.5 89C22.6096 89 0 90.7909 0 93C0 95.2091 22.6096 97 50.5 97Z" fill="#EEEEEE"/>
</svg>
