<svg width="20" height="20" viewBox="0 0 20 20" fill="none" xmlns="http://www.w3.org/2000/svg">
<path fill-rule="evenodd" clip-rule="evenodd" d="M13.75 7.5C13.9867 7.5 14.2032 7.63375 14.309 7.84549L18.684 16.5955C18.8384 16.9042 18.7133 17.2796 18.4045 17.434C18.0958 17.5884 17.7204 17.4632 17.566 17.1545L13.75 9.52254L9.93403 17.1545C9.77966 17.4632 9.40424 17.5884 9.09551 17.434C8.78677 17.2796 8.66163 16.9042 8.816 16.5955L13.191 7.84549C13.2969 7.63375 13.5133 7.5 13.75 7.5Z" fill="#011D49"/>
<path fill-rule="evenodd" clip-rule="evenodd" d="M10 14.375C10 14.0298 10.2798 13.75 10.625 13.75H16.875C17.2202 13.75 17.5 14.0298 17.5 14.375C17.5 14.7202 17.2202 15 16.875 15H10.625C10.2798 15 10 14.7202 10 14.375Z" fill="#011D49"/>
<path fill-rule="evenodd" clip-rule="evenodd" d="M6.875 1.875C7.22018 1.875 7.5 2.15482 7.5 2.5V4.375C7.5 4.72018 7.22018 5 6.875 5C6.52982 5 6.25 4.72018 6.25 4.375V2.5C6.25 2.15482 6.52982 1.875 6.875 1.875Z" fill="#011D49"/>
<path fill-rule="evenodd" clip-rule="evenodd" d="M1.25 4.375C1.25 4.02982 1.52982 3.75 1.875 3.75H11.875C12.2202 3.75 12.5 4.02982 12.5 4.375C12.5 4.72018 12.2202 5 11.875 5H1.875C1.52982 5 1.25 4.72018 1.25 4.375Z" fill="#011D49"/>
<path fill-rule="evenodd" clip-rule="evenodd" d="M9.375 3.75C9.72018 3.75 10 4.02982 10 4.375C10 6.52988 9.14398 8.59651 7.62024 10.1202C6.09651 11.644 4.02988 12.5 1.875 12.5C1.52982 12.5 1.25 12.2202 1.25 11.875C1.25 11.5298 1.52982 11.25 1.875 11.25C3.69836 11.25 5.44705 10.5257 6.73636 9.23636C8.02567 7.94705 8.75 6.19836 8.75 4.375C8.75 4.02982 9.02982 3.75 9.375 3.75Z" fill="#011D49"/>
<path fill-rule="evenodd" clip-rule="evenodd" d="M4.5964 6.28573C4.92184 6.17067 5.27893 6.34122 5.39399 6.66665C5.86786 8.00695 6.74555 9.16738 7.90624 9.9882C9.06692 10.809 10.4535 11.2498 11.8751 11.25C12.2203 11.25 12.5001 11.5299 12.5 11.8751C12.5 12.2202 12.2202 12.5 11.875 12.5C10.1949 12.4998 8.55622 11.9788 7.1845 11.0088C5.81278 10.0387 4.7755 8.6673 4.21548 7.08332C4.10042 6.75788 4.27097 6.40079 4.5964 6.28573Z" fill="#011D49"/>
</svg>
