<svg width="34" height="34" viewBox="0 0 34 34" fill="none" xmlns="http://www.w3.org/2000/svg">
<path d="M7.53134 27.5377C8.39313 25.5073 10.4052 24.0833 12.7499 24.0833H21.2499C23.5946 24.0833 25.6067 25.5074 26.4685 27.5377M22.6666 13.4583C22.6666 16.5879 20.1295 19.125 16.9999 19.125C13.8703 19.125 11.3333 16.5879 11.3333 13.4583C11.3333 10.3287 13.8703 7.79165 16.9999 7.79165C20.1295 7.79165 22.6666 10.3287 22.6666 13.4583ZM31.1666 17C31.1666 24.824 24.824 31.1666 16.9999 31.1666C9.17588 31.1666 2.83325 24.824 2.83325 17C2.83325 9.17595 9.17588 2.83331 16.9999 2.83331C24.824 2.83331 31.1666 9.17595 31.1666 17Z" stroke="#0F1040" stroke-width="2" stroke-linecap="round" stroke-linejoin="round"/>
</svg>
